<svg width="58" height="14" viewBox="0 0 58 14" fill="none" xmlns="http://www.w3.org/2000/svg">
<rect width="58" height="14" rx="4" fill="#366CFF" fill-opacity="0.2"/>
<path d="M5.49082 3.89062V11H4.26523V3.89062H5.49082ZM8.39121 7.00098V7.97266H5.17832V7.00098H8.39121ZM8.79648 3.89062V4.86719H5.17832V3.89062H8.79648ZM9.57305 3.89062H12.0877C12.6281 3.89062 13.0887 3.97201 13.4695 4.13477C13.8504 4.29753 14.1417 4.53841 14.3436 4.85742C14.5486 5.17318 14.6512 5.5638 14.6512 6.0293C14.6512 6.38411 14.5861 6.69661 14.4559 6.9668C14.3257 7.23698 14.1417 7.46484 13.9041 7.65039C13.6665 7.83268 13.3833 7.97428 13.0545 8.0752L12.6834 8.25586H10.4227L10.4129 7.28418H12.1072C12.4002 7.28418 12.6443 7.2321 12.8396 7.12793C13.035 7.02376 13.1814 6.88216 13.2791 6.70312C13.38 6.52083 13.4305 6.31576 13.4305 6.08789C13.4305 5.84049 13.3816 5.62565 13.284 5.44336C13.1896 5.25781 13.0431 5.11621 12.8445 5.01855C12.646 4.91764 12.3937 4.86719 12.0877 4.86719H10.7986V11H9.57305V3.89062ZM13.6307 11L11.9607 7.80664L13.2449 7.80176L14.9393 10.9365V11H13.6307ZM20.3252 10.0283V11H16.5508V10.0283H20.3252ZM16.8975 3.89062V11H15.6719V3.89062H16.8975ZM19.832 6.85938V7.81641H16.5508V6.85938H19.832ZM20.3008 3.89062V4.86719H16.5508V3.89062H20.3008ZM25.7795 10.0283V11H22.0051V10.0283H25.7795ZM22.3518 3.89062V11H21.1262V3.89062H22.3518ZM25.2863 6.85938V7.81641H22.0051V6.85938H25.2863ZM25.7551 3.89062V4.86719H22.0051V3.89062H25.7551ZM31.5611 3.89062V11H30.3453V3.89062H31.5611ZM33.7926 3.89062V4.86719H28.1334V3.89062H33.7926ZM34.5301 3.89062H37.0447C37.5851 3.89062 38.0457 3.97201 38.4266 4.13477C38.8074 4.29753 39.0988 4.53841 39.3006 4.85742C39.5057 5.17318 39.6082 5.5638 39.6082 6.0293C39.6082 6.38411 39.5431 6.69661 39.4129 6.9668C39.2827 7.23698 39.0988 7.46484 38.8611 7.65039C38.6235 7.83268 38.3403 7.97428 38.0115 8.0752L37.6404 8.25586H35.3797L35.3699 7.28418H37.0643C37.3572 7.28418 37.6014 7.2321 37.7967 7.12793C37.992 7.02376 38.1385 6.88216 38.2361 6.70312C38.337 6.52083 38.3875 6.31576 38.3875 6.08789C38.3875 5.84049 38.3387 5.62565 38.241 5.44336C38.1466 5.25781 38.0001 5.11621 37.8016 5.01855C37.603 4.91764 37.3507 4.86719 37.0447 4.86719H35.7557V11H34.5301V3.89062ZM38.5877 11L36.9178 7.80664L38.202 7.80176L39.8963 10.9365V11H38.5877ZM41.9375 3.89062V11H40.7119V3.89062H41.9375ZM46.1174 4.83789L43.9934 11H42.7092L45.385 3.89062H46.2053L46.1174 4.83789ZM47.8947 11L45.7658 4.83789L45.673 3.89062H46.4982L49.1838 11H47.8947ZM47.7922 8.36328V9.33496H43.925V8.36328H47.7922ZM54.2328 10.0283V11H50.6635V10.0283H54.2328ZM51.0053 3.89062V11H49.7797V3.89062H51.0053Z" fill="#2962FF"/>
</svg>
