<svg width="70" height="16" viewBox="0 0 70 16" fill="none" xmlns="http://www.w3.org/2000/svg">
<path d="M0 4C0 1.79086 1.79086 0 4 0H66C68.2091 0 70 1.79086 70 4V12C70 14.2091 68.2091 16 66 16H4C1.79086 16 0 14.2091 0 12V4Z" fill="#E8E8E8"/>
<path d="M5.87846 12V4.72727H7.19593V10.8956H10.3991V12H5.87846ZM11.4857 12V6.54545H12.7712V12H11.4857ZM12.132 5.77131C11.9284 5.77131 11.7532 5.70384 11.6064 5.56889C11.4597 5.43158 11.3863 5.26705 11.3863 5.07528C11.3863 4.88116 11.4597 4.71662 11.6064 4.58168C11.7532 4.44437 11.9284 4.37571 12.132 4.37571C12.338 4.37571 12.5132 4.44437 12.6576 4.58168C12.8044 4.71662 12.8778 4.88116 12.8778 5.07528C12.8778 5.26705 12.8044 5.43158 12.6576 5.56889C12.5132 5.70384 12.338 5.77131 12.132 5.77131ZM14.0931 12V6.54545H15.3218V7.4723H15.3857C15.4994 7.1598 15.6876 6.91596 15.9504 6.74077C16.2132 6.56321 16.5268 6.47443 16.8914 6.47443C17.2607 6.47443 17.5721 6.56439 17.8254 6.74432C18.0811 6.92187 18.261 7.16454 18.3651 7.4723H18.422C18.5427 7.16927 18.7463 6.92779 19.0328 6.74787C19.3216 6.56558 19.6637 6.47443 20.059 6.47443C20.5609 6.47443 20.9705 6.63305 21.2877 6.95028C21.605 7.26752 21.7636 7.73035 21.7636 8.33878V12H20.4745V8.53764C20.4745 8.1991 20.3846 7.9517 20.2046 7.79545C20.0247 7.63684 19.8045 7.55753 19.5441 7.55753C19.234 7.55753 18.9913 7.65459 18.8161 7.84872C18.6433 8.04048 18.5569 8.29025 18.5569 8.59801V12H17.2963V8.48438C17.2963 8.20265 17.211 7.97775 17.0406 7.80966C16.8725 7.64157 16.6523 7.55753 16.3801 7.55753C16.1954 7.55753 16.0273 7.60488 15.8758 7.69957C15.7243 7.7919 15.6035 7.9233 15.5136 8.09375C15.4236 8.26184 15.3786 8.45833 15.3786 8.68324V12H14.0931ZM23.0677 12V6.54545H24.3532V12H23.0677ZM23.714 5.77131C23.5104 5.77131 23.3353 5.70384 23.1885 5.56889C23.0417 5.43158 22.9683 5.26705 22.9683 5.07528C22.9683 4.88116 23.0417 4.71662 23.1885 4.58168C23.3353 4.44437 23.5104 4.37571 23.714 4.37571C23.92 4.37571 24.0952 4.44437 24.2396 4.58168C24.3864 4.71662 24.4598 4.88116 24.4598 5.07528C24.4598 5.26705 24.3864 5.43158 24.2396 5.56889C24.0952 5.70384 23.92 5.77131 23.714 5.77131ZM28.3989 6.54545V7.53977H25.2632V6.54545H28.3989ZM26.0374 5.23864H27.3229V10.3594C27.3229 10.5322 27.3489 10.6648 27.401 10.7571C27.4555 10.8471 27.5265 10.9086 27.6141 10.9418C27.7017 10.9749 27.7987 10.9915 27.9053 10.9915C27.9858 10.9915 28.0592 10.9856 28.1254 10.9737C28.1941 10.9619 28.2462 10.9512 28.2817 10.9418L28.4983 11.9467C28.4297 11.9704 28.3314 11.9964 28.2036 12.0249C28.0781 12.0533 27.9242 12.0698 27.7419 12.0746C27.42 12.084 27.1299 12.0355 26.8719 11.929C26.6138 11.8201 26.4091 11.652 26.2575 11.4247C26.1084 11.1974 26.035 10.9134 26.0374 10.5724V5.23864ZM31.8302 12.1065C31.2833 12.1065 30.811 11.9929 30.4133 11.7656C30.0179 11.536 29.7137 11.2116 29.5006 10.7926C29.2876 10.3712 29.181 9.87524 29.181 9.30469C29.181 8.74361 29.2876 8.25118 29.5006 7.82741C29.7161 7.40128 30.0167 7.06984 30.4026 6.8331C30.7885 6.59399 31.2419 6.47443 31.7627 6.47443C32.0989 6.47443 32.4161 6.52888 32.7144 6.63778C33.0151 6.74432 33.2802 6.91004 33.5099 7.13494C33.7419 7.35985 33.9242 7.64631 34.0567 7.99432C34.1893 8.33996 34.2556 8.75189 34.2556 9.23011V9.62429H29.7847V8.75781H33.0233C33.021 8.5116 32.9677 8.29261 32.8635 8.10085C32.7594 7.90672 32.6138 7.75402 32.4268 7.64276C32.2421 7.53149 32.0267 7.47585 31.7805 7.47585C31.5177 7.47585 31.2868 7.53977 31.088 7.66761C30.8891 7.79309 30.734 7.95881 30.6228 8.16477C30.5139 8.36837 30.4582 8.59209 30.4559 8.83594V9.59233C30.4559 9.90956 30.5139 10.1818 30.6299 10.4091C30.7459 10.634 30.9081 10.8068 31.1164 10.9276C31.3247 11.0459 31.5686 11.1051 31.8479 11.1051C32.0349 11.1051 32.2042 11.0791 32.3557 11.027C32.5073 10.9725 32.6386 10.8932 32.7499 10.7891C32.8612 10.6849 32.9452 10.5559 33.002 10.402L34.2023 10.5369C34.1266 10.8542 33.9822 11.1312 33.7691 11.3679C33.5584 11.6023 33.2885 11.7846 32.9594 11.9148C32.6304 12.0426 32.2539 12.1065 31.8302 12.1065ZM37.3673 12.0959C36.9388 12.0959 36.5552 11.9858 36.2167 11.7656C35.8782 11.5455 35.6106 11.2259 35.4142 10.8068C35.2177 10.3878 35.1194 9.87879 35.1194 9.27983C35.1194 8.67377 35.2188 8.16241 35.4177 7.74574C35.6189 7.3267 35.89 7.01065 36.2309 6.79759C36.5718 6.58215 36.9518 6.47443 37.3708 6.47443C37.6904 6.47443 37.9532 6.52888 38.1592 6.63778C38.3651 6.74432 38.5285 6.87334 38.6492 7.02486C38.77 7.17401 38.8635 7.31487 38.9298 7.44744H38.983V4.72727H40.2721V12H39.0079V11.1406H38.9298C38.8635 11.2732 38.7676 11.4141 38.6421 11.5632C38.5167 11.71 38.3509 11.8355 38.145 11.9396C37.939 12.0438 37.6798 12.0959 37.3673 12.0959ZM37.7259 11.0412C37.9982 11.0412 38.2302 10.9678 38.422 10.821C38.6137 10.6719 38.7593 10.4647 38.8588 10.1996C38.9582 9.93442 39.0079 9.62547 39.0079 9.27273C39.0079 8.91998 38.9582 8.6134 38.8588 8.35298C38.7617 8.09257 38.6173 7.89015 38.4255 7.74574C38.2361 7.60133 38.0029 7.52912 37.7259 7.52912C37.4395 7.52912 37.2004 7.60369 37.0086 7.75284C36.8169 7.90199 36.6724 8.10795 36.5754 8.37074C36.4783 8.63352 36.4298 8.93419 36.4298 9.27273C36.4298 9.61364 36.4783 9.91785 36.5754 10.1854C36.6748 10.4505 36.8204 10.66 37.0122 10.8139C37.2063 10.9654 37.4442 11.0412 37.7259 11.0412ZM44.1792 12V4.72727H48.8383V5.83168H45.4967V7.80611H48.5187V8.91051H45.4967V12H44.1792ZM49.9037 12V6.54545H51.1501V7.45455H51.2069C51.3064 7.13968 51.4768 6.89702 51.7183 6.72656C51.9622 6.55374 52.2403 6.46733 52.5528 6.46733C52.6238 6.46733 52.7032 6.47088 52.7907 6.47798C52.8807 6.48272 52.9553 6.491 53.0145 6.50284V7.68537C52.96 7.66643 52.8736 7.64986 52.7552 7.63565C52.6392 7.61908 52.5268 7.6108 52.4179 7.6108C52.1835 7.6108 51.9728 7.66169 51.7858 7.76349C51.6011 7.86293 51.4555 8.00142 51.349 8.17898C51.2425 8.35653 51.1892 8.56132 51.1892 8.79332V12H49.9037ZM56.0587 12.1065C55.5118 12.1065 55.0395 11.9929 54.6418 11.7656C54.2464 11.536 53.9422 11.2116 53.7291 10.7926C53.5161 10.3712 53.4095 9.87524 53.4095 9.30469C53.4095 8.74361 53.5161 8.25118 53.7291 7.82741C53.9446 7.40128 54.2452 7.06984 54.6311 6.8331C55.017 6.59399 55.4704 6.47443 55.9912 6.47443C56.3274 6.47443 56.6446 6.52888 56.9429 6.63778C57.2436 6.74432 57.5087 6.91004 57.7384 7.13494C57.9704 7.35985 58.1527 7.64631 58.2852 7.99432C58.4178 8.33996 58.4841 8.75189 58.4841 9.23011V9.62429H54.0132V8.75781H57.2519C57.2495 8.5116 57.1962 8.29261 57.0921 8.10085C56.9879 7.90672 56.8423 7.75402 56.6553 7.64276C56.4706 7.53149 56.2552 7.47585 56.009 7.47585C55.7462 7.47585 55.5154 7.53977 55.3165 7.66761C55.1176 7.79309 54.9626 7.95881 54.8513 8.16477C54.7424 8.36837 54.6868 8.59209 54.6844 8.83594V9.59233C54.6844 9.90956 54.7424 10.1818 54.8584 10.4091C54.9744 10.634 55.1366 10.8068 55.3449 10.9276C55.5532 11.0459 55.7971 11.1051 56.0764 11.1051C56.2635 11.1051 56.4327 11.0791 56.5843 11.027C56.7358 10.9725 56.8672 10.8932 56.9784 10.7891C57.0897 10.6849 57.1737 10.5559 57.2306 10.402L58.4308 10.5369C58.3551 10.8542 58.2107 11.1312 57.9976 11.3679C57.7869 11.6023 57.517 11.7846 57.1879 11.9148C56.8589 12.0426 56.4825 12.1065 56.0587 12.1065ZM61.9864 12.1065C61.4395 12.1065 60.9672 11.9929 60.5695 11.7656C60.1742 11.536 59.8699 11.2116 59.6569 10.7926C59.4438 10.3712 59.3373 9.87524 59.3373 9.30469C59.3373 8.74361 59.4438 8.25118 59.6569 7.82741C59.8723 7.40128 60.173 7.06984 60.5589 6.8331C60.9448 6.59399 61.3981 6.47443 61.9189 6.47443C62.2551 6.47443 62.5724 6.52888 62.8706 6.63778C63.1713 6.74432 63.4365 6.91004 63.6661 7.13494C63.8981 7.35985 64.0804 7.64631 64.213 7.99432C64.3456 8.33996 64.4118 8.75189 64.4118 9.23011V9.62429H59.941V8.75781H63.1796C63.1772 8.5116 63.124 8.29261 63.0198 8.10085C62.9156 7.90672 62.77 7.75402 62.583 7.64276C62.3983 7.53149 62.1829 7.47585 61.9367 7.47585C61.6739 7.47585 61.4431 7.53977 61.2442 7.66761C61.0454 7.79309 60.8903 7.95881 60.779 8.16477C60.6701 8.36837 60.6145 8.59209 60.6121 8.83594V9.59233C60.6121 9.90956 60.6701 10.1818 60.7861 10.4091C60.9021 10.634 61.0643 10.8068 61.2726 10.9276C61.481 11.0459 61.7248 11.1051 62.0042 11.1051C62.1912 11.1051 62.3605 11.0791 62.512 11.027C62.6635 10.9725 62.7949 10.8932 62.9062 10.7891C63.0174 10.6849 63.1015 10.5559 63.1583 10.402L64.3586 10.5369C64.2828 10.8542 64.1384 11.1312 63.9253 11.3679C63.7146 11.6023 63.4448 11.7846 63.1157 11.9148C62.7866 12.0426 62.4102 12.1065 61.9864 12.1065Z" fill="black" fill-opacity="0.9"/>
</svg>
