<svg width="32" height="16" viewBox="0 0 32 16" fill="none" xmlns="http://www.w3.org/2000/svg">
<rect width="32" height="16" rx="4" fill="url(#paint0_linear_6674_208464)"/>
<path d="M6.37553 12V4.72727H9.10281C9.66152 4.72727 10.1303 4.83144 10.5091 5.03977C10.8902 5.24811 11.1779 5.53456 11.372 5.89915C11.5685 6.26136 11.6667 6.6733 11.6667 7.13494C11.6667 7.60133 11.5685 8.01562 11.372 8.37784C11.1755 8.74006 10.8855 9.02533 10.502 9.23366C10.1184 9.43963 9.64613 9.54261 9.08505 9.54261H7.27752V8.45952H8.90749C9.2342 8.45952 9.50172 8.4027 9.71005 8.28906C9.91838 8.17543 10.0723 8.01918 10.1717 7.82031C10.2735 7.62145 10.3244 7.39299 10.3244 7.13494C10.3244 6.87689 10.2735 6.64962 10.1717 6.45312C10.0723 6.25663 9.9172 6.10393 9.7065 5.99503C9.49817 5.88376 9.22946 5.82812 8.90039 5.82812H7.693V12H6.37553ZM12.8111 12V4.72727H15.5384C16.0971 4.72727 16.5658 4.82434 16.9446 5.01847C17.3258 5.21259 17.6134 5.48485 17.8075 5.83523C18.004 6.18324 18.1023 6.58925 18.1023 7.05327C18.1023 7.51965 18.0028 7.92448 17.804 8.26776C17.6075 8.60866 17.3175 8.87263 16.9339 9.05966C16.5504 9.24432 16.0793 9.33665 15.5206 9.33665H13.5781V8.2429H15.343C15.6697 8.2429 15.9373 8.19792 16.1456 8.10795C16.3539 8.01562 16.5078 7.88187 16.6072 7.70668C16.709 7.52912 16.7599 7.31132 16.7599 7.05327C16.7599 6.79522 16.709 6.57505 16.6072 6.39276C16.5054 6.2081 16.3504 6.06842 16.142 5.97372C15.9337 5.87666 15.665 5.82812 15.3359 5.82812H14.1286V12H12.8111ZM16.5682 8.70455L18.3686 12H16.8984L15.13 8.70455H16.5682ZM25.8136 8.36364C25.8136 9.14725 25.6668 9.81842 25.3732 10.3771C25.082 10.9335 24.6843 11.3596 24.18 11.6555C23.6781 11.9515 23.1088 12.0994 22.4719 12.0994C21.8351 12.0994 21.2646 11.9515 20.7603 11.6555C20.2584 11.3572 19.8607 10.9299 19.5671 10.3736C19.2759 9.81487 19.1303 9.14489 19.1303 8.36364C19.1303 7.58002 19.2759 6.91004 19.5671 6.35369C19.8607 5.79498 20.2584 5.36766 20.7603 5.07173C21.2646 4.7758 21.8351 4.62784 22.4719 4.62784C23.1088 4.62784 23.6781 4.7758 24.18 5.07173C24.6843 5.36766 25.082 5.79498 25.3732 6.35369C25.6668 6.91004 25.8136 7.58002 25.8136 8.36364ZM24.489 8.36364C24.489 7.81203 24.4026 7.34683 24.2298 6.96804C24.0593 6.58688 23.8226 6.29924 23.5195 6.10511C23.2165 5.90862 22.8673 5.81037 22.4719 5.81037C22.0766 5.81037 21.7274 5.90862 21.4244 6.10511C21.1213 6.29924 20.8834 6.58688 20.7106 6.96804C20.5401 7.34683 20.4549 7.81203 20.4549 8.36364C20.4549 8.91525 20.5401 9.38163 20.7106 9.76278C20.8834 10.1416 21.1213 10.4292 21.4244 10.6257C21.7274 10.8198 22.0766 10.9169 22.4719 10.9169C22.8673 10.9169 23.2165 10.8198 23.5195 10.6257C23.8226 10.4292 24.0593 10.1416 24.2298 9.76278C24.4026 9.38163 24.489 8.91525 24.489 8.36364Z" fill="url(#paint1_linear_6674_208464)"/>
<defs>
<linearGradient id="paint0_linear_6674_208464" x1="0" y1="8" x2="31.7184" y2="7.84838" gradientUnits="userSpaceOnUse">
<stop stop-color="#47C8FF"/>
<stop offset="1" stop-color="#2963FF"/>
</linearGradient>
<linearGradient id="paint1_linear_6674_208464" x1="17.7016" y1="3.89305" x2="19.9758" y2="13.4843" gradientUnits="userSpaceOnUse">
<stop stop-color="white"/>
<stop offset="1" stop-color="#D5DDF2"/>
</linearGradient>
</defs>
</svg>
