<svg width="24" height="24" viewBox="0 0 24 24" fill="none" xmlns="http://www.w3.org/2000/svg">
<path d="M8 3H6L3.00038 6L3 21H8V3Z" fill="#F9D749"/>
<path d="M21 18V16L8 16L5 19V21H18L21 18Z" fill="#E23F50"/>
<path d="M12.4688 3.98438C15.4977 3.98438 17.9531 6.43981 17.9531 9.46875C17.9531 10.6163 17.5997 11.6809 16.9971 12.5615L20.2178 15.7822C20.6144 16.1789 20.6144 16.8211 20.2178 17.2178C19.8211 17.6144 19.1789 17.6144 18.7822 17.2178L15.5615 13.9971C14.6809 14.5997 13.6163 14.9531 12.4688 14.9531C9.43981 14.9531 6.98438 12.4977 6.98438 9.46875C6.98438 6.43981 9.43981 3.98438 12.4688 3.98438ZM12.4688 6.01562C10.5616 6.01562 9.01562 7.56164 9.01562 9.46875C9.01562 11.3759 10.5616 12.9219 12.4688 12.9219C14.3759 12.9219 15.9219 11.3759 15.9219 9.46875C15.9219 7.56164 14.3759 6.01562 12.4688 6.01562Z" fill="#1F81DC"/>
</svg>
