<svg width="72" height="16" viewBox="0 0 72 16" fill="none" xmlns="http://www.w3.org/2000/svg">
<path d="M0 3C0 1.34315 1.34315 0 3 0H69C70.6569 0 72 1.34315 72 3V13C72 14.6569 70.6569 16 69 16H3C1.34315 16 0 14.6569 0 13V3Z" fill="#E8E8E8" fill-opacity="0.2"/>
<path d="M6.87846 12V4.72727H8.19593V10.8956H11.3991V12H6.87846ZM12.4857 12V6.54545H13.7712V12H12.4857ZM13.132 5.77131C12.9284 5.77131 12.7532 5.70384 12.6064 5.56889C12.4597 5.43158 12.3863 5.26705 12.3863 5.07528C12.3863 4.88116 12.4597 4.71662 12.6064 4.58168C12.7532 4.44437 12.9284 4.37571 13.132 4.37571C13.338 4.37571 13.5132 4.44437 13.6576 4.58168C13.8044 4.71662 13.8778 4.88116 13.8778 5.07528C13.8778 5.26705 13.8044 5.43158 13.6576 5.56889C13.5132 5.70384 13.338 5.77131 13.132 5.77131ZM15.0931 12V6.54545H16.3218V7.4723H16.3857C16.4994 7.1598 16.6876 6.91596 16.9504 6.74077C17.2132 6.56321 17.5268 6.47443 17.8914 6.47443C18.2607 6.47443 18.5721 6.56439 18.8254 6.74432C19.0811 6.92187 19.261 7.16454 19.3651 7.4723H19.422C19.5427 7.16927 19.7463 6.92779 20.0328 6.74787C20.3216 6.56558 20.6637 6.47443 21.059 6.47443C21.5609 6.47443 21.9705 6.63305 22.2877 6.95028C22.605 7.26752 22.7636 7.73035 22.7636 8.33878V12H21.4745V8.53764C21.4745 8.1991 21.3846 7.9517 21.2046 7.79545C21.0247 7.63684 20.8045 7.55753 20.5441 7.55753C20.234 7.55753 19.9913 7.65459 19.8161 7.84872C19.6433 8.04048 19.5569 8.29025 19.5569 8.59801V12H18.2963V8.48438C18.2963 8.20265 18.211 7.97775 18.0406 7.80966C17.8725 7.64157 17.6523 7.55753 17.3801 7.55753C17.1954 7.55753 17.0273 7.60488 16.8758 7.69957C16.7243 7.7919 16.6035 7.9233 16.5136 8.09375C16.4236 8.26184 16.3786 8.45833 16.3786 8.68324V12H15.0931ZM24.0677 12V6.54545H25.3532V12H24.0677ZM24.714 5.77131C24.5104 5.77131 24.3353 5.70384 24.1885 5.56889C24.0417 5.43158 23.9683 5.26705 23.9683 5.07528C23.9683 4.88116 24.0417 4.71662 24.1885 4.58168C24.3353 4.44437 24.5104 4.37571 24.714 4.37571C24.92 4.37571 25.0952 4.44437 25.2396 4.58168C25.3864 4.71662 25.4598 4.88116 25.4598 5.07528C25.4598 5.26705 25.3864 5.43158 25.2396 5.56889C25.0952 5.70384 24.92 5.77131 24.714 5.77131ZM29.3989 6.54545V7.53977H26.2632V6.54545H29.3989ZM27.0374 5.23864H28.3229V10.3594C28.3229 10.5322 28.3489 10.6648 28.401 10.7571C28.4555 10.8471 28.5265 10.9086 28.6141 10.9418C28.7017 10.9749 28.7987 10.9915 28.9053 10.9915C28.9858 10.9915 29.0592 10.9856 29.1254 10.9737C29.1941 10.9619 29.2462 10.9512 29.2817 10.9418L29.4983 11.9467C29.4297 11.9704 29.3314 11.9964 29.2036 12.0249C29.0781 12.0533 28.9242 12.0698 28.7419 12.0746C28.42 12.084 28.1299 12.0355 27.8719 11.929C27.6138 11.8201 27.4091 11.652 27.2575 11.4247C27.1084 11.1974 27.035 10.9134 27.0374 10.5724V5.23864ZM32.8302 12.1065C32.2833 12.1065 31.811 11.9929 31.4133 11.7656C31.0179 11.536 30.7137 11.2116 30.5006 10.7926C30.2876 10.3712 30.181 9.87524 30.181 9.30469C30.181 8.74361 30.2876 8.25118 30.5006 7.82741C30.7161 7.40128 31.0167 7.06984 31.4026 6.8331C31.7885 6.59399 32.2419 6.47443 32.7627 6.47443C33.0989 6.47443 33.4161 6.52888 33.7144 6.63778C34.0151 6.74432 34.2802 6.91004 34.5099 7.13494C34.7419 7.35985 34.9242 7.64631 35.0567 7.99432C35.1893 8.33996 35.2556 8.75189 35.2556 9.23011V9.62429H30.7847V8.75781H34.0233C34.021 8.5116 33.9677 8.29261 33.8635 8.10085C33.7594 7.90672 33.6138 7.75402 33.4268 7.64276C33.2421 7.53149 33.0267 7.47585 32.7805 7.47585C32.5177 7.47585 32.2868 7.53977 32.088 7.66761C31.8891 7.79309 31.734 7.95881 31.6228 8.16477C31.5139 8.36837 31.4582 8.59209 31.4559 8.83594V9.59233C31.4559 9.90956 31.5139 10.1818 31.6299 10.4091C31.7459 10.634 31.9081 10.8068 32.1164 10.9276C32.3247 11.0459 32.5686 11.1051 32.8479 11.1051C33.0349 11.1051 33.2042 11.0791 33.3557 11.027C33.5073 10.9725 33.6386 10.8932 33.7499 10.7891C33.8612 10.6849 33.9452 10.5559 34.002 10.402L35.2023 10.5369C35.1266 10.8542 34.9822 11.1312 34.7691 11.3679C34.5584 11.6023 34.2885 11.7846 33.9594 11.9148C33.6304 12.0426 33.2539 12.1065 32.8302 12.1065ZM38.3673 12.0959C37.9388 12.0959 37.5552 11.9858 37.2167 11.7656C36.8782 11.5455 36.6106 11.2259 36.4142 10.8068C36.2177 10.3878 36.1194 9.87879 36.1194 9.27983C36.1194 8.67377 36.2188 8.16241 36.4177 7.74574C36.6189 7.3267 36.89 7.01065 37.2309 6.79759C37.5718 6.58215 37.9518 6.47443 38.3708 6.47443C38.6904 6.47443 38.9532 6.52888 39.1592 6.63778C39.3651 6.74432 39.5285 6.87334 39.6492 7.02486C39.77 7.17401 39.8635 7.31487 39.9298 7.44744H39.983V4.72727H41.2721V12H40.0079V11.1406H39.9298C39.8635 11.2732 39.7676 11.4141 39.6421 11.5632C39.5167 11.71 39.3509 11.8355 39.145 11.9396C38.939 12.0438 38.6798 12.0959 38.3673 12.0959ZM38.7259 11.0412C38.9982 11.0412 39.2302 10.9678 39.422 10.821C39.6137 10.6719 39.7593 10.4647 39.8588 10.1996C39.9582 9.93442 40.0079 9.62547 40.0079 9.27273C40.0079 8.91998 39.9582 8.6134 39.8588 8.35298C39.7617 8.09257 39.6173 7.89015 39.4255 7.74574C39.2361 7.60133 39.0029 7.52912 38.7259 7.52912C38.4395 7.52912 38.2004 7.60369 38.0086 7.75284C37.8169 7.90199 37.6724 8.10795 37.5754 8.37074C37.4783 8.63352 37.4298 8.93419 37.4298 9.27273C37.4298 9.61364 37.4783 9.91785 37.5754 10.1854C37.6748 10.4505 37.8204 10.66 38.0122 10.8139C38.2063 10.9654 38.4442 11.0412 38.7259 11.0412ZM45.1792 12V4.72727H49.8383V5.83168H46.4967V7.80611H49.5187V8.91051H46.4967V12H45.1792ZM50.9037 12V6.54545H52.1501V7.45455H52.2069C52.3064 7.13968 52.4768 6.89702 52.7183 6.72656C52.9622 6.55374 53.2403 6.46733 53.5528 6.46733C53.6238 6.46733 53.7032 6.47088 53.7907 6.47798C53.8807 6.48272 53.9553 6.491 54.0145 6.50284V7.68537C53.96 7.66643 53.8736 7.64986 53.7552 7.63565C53.6392 7.61908 53.5268 7.6108 53.4179 7.6108C53.1835 7.6108 52.9728 7.66169 52.7858 7.76349C52.6011 7.86293 52.4555 8.00142 52.349 8.17898C52.2425 8.35653 52.1892 8.56132 52.1892 8.79332V12H50.9037ZM57.0587 12.1065C56.5118 12.1065 56.0395 11.9929 55.6418 11.7656C55.2464 11.536 54.9422 11.2116 54.7291 10.7926C54.5161 10.3712 54.4095 9.87524 54.4095 9.30469C54.4095 8.74361 54.5161 8.25118 54.7291 7.82741C54.9446 7.40128 55.2452 7.06984 55.6311 6.8331C56.017 6.59399 56.4704 6.47443 56.9912 6.47443C57.3274 6.47443 57.6446 6.52888 57.9429 6.63778C58.2436 6.74432 58.5087 6.91004 58.7384 7.13494C58.9704 7.35985 59.1527 7.64631 59.2852 7.99432C59.4178 8.33996 59.4841 8.75189 59.4841 9.23011V9.62429H55.0132V8.75781H58.2519C58.2495 8.5116 58.1962 8.29261 58.0921 8.10085C57.9879 7.90672 57.8423 7.75402 57.6553 7.64276C57.4706 7.53149 57.2552 7.47585 57.009 7.47585C56.7462 7.47585 56.5154 7.53977 56.3165 7.66761C56.1176 7.79309 55.9626 7.95881 55.8513 8.16477C55.7424 8.36837 55.6868 8.59209 55.6844 8.83594V9.59233C55.6844 9.90956 55.7424 10.1818 55.8584 10.4091C55.9744 10.634 56.1366 10.8068 56.3449 10.9276C56.5532 11.0459 56.7971 11.1051 57.0764 11.1051C57.2635 11.1051 57.4327 11.0791 57.5843 11.027C57.7358 10.9725 57.8672 10.8932 57.9784 10.7891C58.0897 10.6849 58.1737 10.5559 58.2306 10.402L59.4308 10.5369C59.3551 10.8542 59.2107 11.1312 58.9976 11.3679C58.7869 11.6023 58.517 11.7846 58.1879 11.9148C57.8589 12.0426 57.4825 12.1065 57.0587 12.1065ZM62.9864 12.1065C62.4395 12.1065 61.9672 11.9929 61.5695 11.7656C61.1742 11.536 60.8699 11.2116 60.6569 10.7926C60.4438 10.3712 60.3373 9.87524 60.3373 9.30469C60.3373 8.74361 60.4438 8.25118 60.6569 7.82741C60.8723 7.40128 61.173 7.06984 61.5589 6.8331C61.9448 6.59399 62.3981 6.47443 62.9189 6.47443C63.2551 6.47443 63.5724 6.52888 63.8706 6.63778C64.1713 6.74432 64.4365 6.91004 64.6661 7.13494C64.8981 7.35985 65.0804 7.64631 65.213 7.99432C65.3456 8.33996 65.4118 8.75189 65.4118 9.23011V9.62429H60.941V8.75781H64.1796C64.1772 8.5116 64.124 8.29261 64.0198 8.10085C63.9156 7.90672 63.77 7.75402 63.583 7.64276C63.3983 7.53149 63.1829 7.47585 62.9367 7.47585C62.6739 7.47585 62.4431 7.53977 62.2442 7.66761C62.0454 7.79309 61.8903 7.95881 61.779 8.16477C61.6701 8.36837 61.6145 8.59209 61.6121 8.83594V9.59233C61.6121 9.90956 61.6701 10.1818 61.7861 10.4091C61.9021 10.634 62.0643 10.8068 62.2726 10.9276C62.481 11.0459 62.7248 11.1051 63.0042 11.1051C63.1912 11.1051 63.3605 11.0791 63.512 11.027C63.6635 10.9725 63.7949 10.8932 63.9062 10.7891C64.0174 10.6849 64.1015 10.5559 64.1583 10.402L65.3586 10.5369C65.2828 10.8542 65.1384 11.1312 64.9253 11.3679C64.7146 11.6023 64.4448 11.7846 64.1157 11.9148C63.7866 12.0426 63.4102 12.1065 62.9864 12.1065Z" fill="white" fill-opacity="0.9"/>
</svg>
