<svg width="34" height="16" viewBox="0 0 34 16" fill="none" xmlns="http://www.w3.org/2000/svg">
<path d="M0 3C0 1.34315 1.34315 0 3 0H31C32.6569 0 34 1.34315 34 3V13C34 14.6569 32.6569 16 31 16H3C1.34315 16 0 14.6569 0 13V3Z" fill="#E8E8E8" fill-opacity="0.2"/>
<path d="M7.02885 12V4.72727H11.6879V5.83168H8.34632V7.80611H11.3683V8.91051H8.34632V12H7.02885ZM12.7533 12V6.54545H13.9997V7.45455H14.0566C14.156 7.13968 14.3264 6.89702 14.5679 6.72656C14.8118 6.55374 15.0899 6.46733 15.4024 6.46733C15.4735 6.46733 15.5528 6.47088 15.6404 6.47798C15.7303 6.48272 15.8049 6.491 15.8641 6.50284V7.68537C15.8096 7.66643 15.7232 7.64986 15.6048 7.63565C15.4888 7.61908 15.3764 7.6108 15.2675 7.6108C15.0331 7.6108 14.8224 7.66169 14.6354 7.76349C14.4507 7.86293 14.3051 8.00142 14.1986 8.17898C14.0921 8.35653 14.0388 8.56132 14.0388 8.79332V12H12.7533ZM18.9083 12.1065C18.3614 12.1065 17.8891 11.9929 17.4914 11.7656C17.096 11.536 16.7918 11.2116 16.5787 10.7926C16.3657 10.3712 16.2591 9.87524 16.2591 9.30469C16.2591 8.74361 16.3657 8.25118 16.5787 7.82741C16.7942 7.40128 17.0948 7.06984 17.4807 6.8331C17.8666 6.59399 18.32 6.47443 18.8408 6.47443C19.177 6.47443 19.4942 6.52888 19.7925 6.63778C20.0932 6.74432 20.3583 6.91004 20.588 7.13494C20.82 7.35985 21.0023 7.64631 21.1349 7.99432C21.2674 8.33996 21.3337 8.75189 21.3337 9.23011V9.62429H16.8628V8.75781H20.1015C20.0991 8.5116 20.0458 8.29261 19.9417 8.10085C19.8375 7.90672 19.6919 7.75402 19.5049 7.64276C19.3202 7.53149 19.1048 7.47585 18.8586 7.47585C18.5958 7.47585 18.365 7.53977 18.1661 7.66761C17.9672 7.79309 17.8122 7.95881 17.7009 8.16477C17.592 8.36837 17.5364 8.59209 17.534 8.83594V9.59233C17.534 9.90956 17.592 10.1818 17.708 10.4091C17.824 10.634 17.9862 10.8068 18.1945 10.9276C18.4028 11.0459 18.6467 11.1051 18.926 11.1051C19.1131 11.1051 19.2823 11.0791 19.4339 11.027C19.5854 10.9725 19.7168 10.8932 19.828 10.7891C19.9393 10.6849 20.0233 10.5559 20.0802 10.402L21.2805 10.5369C21.2047 10.8542 21.0603 11.1312 20.8472 11.3679C20.6365 11.6023 20.3666 11.7846 20.0376 11.9148C19.7085 12.0426 19.3321 12.1065 18.9083 12.1065ZM24.836 12.1065C24.2892 12.1065 23.8169 11.9929 23.4191 11.7656C23.0238 11.536 22.7195 11.2116 22.5065 10.7926C22.2934 10.3712 22.1869 9.87524 22.1869 9.30469C22.1869 8.74361 22.2934 8.25118 22.5065 7.82741C22.7219 7.40128 23.0226 7.06984 23.4085 6.8331C23.7944 6.59399 24.2477 6.47443 24.7686 6.47443C25.1047 6.47443 25.422 6.52888 25.7203 6.63778C26.0209 6.74432 26.2861 6.91004 26.5157 7.13494C26.7477 7.35985 26.93 7.64631 27.0626 7.99432C27.1952 8.33996 27.2615 8.75189 27.2615 9.23011V9.62429H22.7906V8.75781H26.0292C26.0268 8.5116 25.9736 8.29261 25.8694 8.10085C25.7652 7.90672 25.6196 7.75402 25.4326 7.64276C25.248 7.53149 25.0325 7.47585 24.7863 7.47585C24.5235 7.47585 24.2927 7.53977 24.0938 7.66761C23.895 7.79309 23.7399 7.95881 23.6286 8.16477C23.5197 8.36837 23.4641 8.59209 23.4617 8.83594V9.59233C23.4617 9.90956 23.5197 10.1818 23.6357 10.4091C23.7517 10.634 23.9139 10.8068 24.1222 10.9276C24.3306 11.0459 24.5744 11.1051 24.8538 11.1051C25.0408 11.1051 25.2101 11.0791 25.3616 11.027C25.5131 10.9725 25.6445 10.8932 25.7558 10.7891C25.867 10.6849 25.9511 10.5559 26.0079 10.402L27.2082 10.5369C27.1324 10.8542 26.988 11.1312 26.7749 11.3679C26.5642 11.6023 26.2944 11.7846 25.9653 11.9148C25.6362 12.0426 25.2598 12.1065 24.836 12.1065Z" fill="white" fill-opacity="0.9"/>
</svg>
