<svg width="32" height="16" viewBox="0 0 32 16" fill="none" xmlns="http://www.w3.org/2000/svg">
<rect width="32" height="16" rx="4" fill="#E8E8E8"/>
<path d="M6.02885 12V4.72727H10.6879V5.83168H7.34632V7.80611H10.3683V8.91051H7.34632V12H6.02885ZM11.7533 12V6.54545H12.9997V7.45455H13.0566C13.156 7.13968 13.3264 6.89702 13.5679 6.72656C13.8118 6.55374 14.0899 6.46733 14.4024 6.46733C14.4735 6.46733 14.5528 6.47088 14.6404 6.47798C14.7303 6.48272 14.8049 6.491 14.8641 6.50284V7.68537C14.8096 7.66643 14.7232 7.64986 14.6048 7.63565C14.4888 7.61908 14.3764 7.6108 14.2675 7.6108C14.0331 7.6108 13.8224 7.66169 13.6354 7.76349C13.4507 7.86293 13.3051 8.00142 13.1986 8.17898C13.0921 8.35653 13.0388 8.56132 13.0388 8.79332V12H11.7533ZM17.9083 12.1065C17.3614 12.1065 16.8891 11.9929 16.4914 11.7656C16.096 11.536 15.7918 11.2116 15.5787 10.7926C15.3657 10.3712 15.2591 9.87524 15.2591 9.30469C15.2591 8.74361 15.3657 8.25118 15.5787 7.82741C15.7942 7.40128 16.0948 7.06984 16.4807 6.8331C16.8666 6.59399 17.32 6.47443 17.8408 6.47443C18.177 6.47443 18.4942 6.52888 18.7925 6.63778C19.0932 6.74432 19.3583 6.91004 19.588 7.13494C19.82 7.35985 20.0023 7.64631 20.1349 7.99432C20.2674 8.33996 20.3337 8.75189 20.3337 9.23011V9.62429H15.8628V8.75781H19.1015C19.0991 8.5116 19.0458 8.29261 18.9417 8.10085C18.8375 7.90672 18.6919 7.75402 18.5049 7.64276C18.3202 7.53149 18.1048 7.47585 17.8586 7.47585C17.5958 7.47585 17.365 7.53977 17.1661 7.66761C16.9672 7.79309 16.8122 7.95881 16.7009 8.16477C16.592 8.36837 16.5364 8.59209 16.534 8.83594V9.59233C16.534 9.90956 16.592 10.1818 16.708 10.4091C16.824 10.634 16.9862 10.8068 17.1945 10.9276C17.4028 11.0459 17.6467 11.1051 17.926 11.1051C18.1131 11.1051 18.2823 11.0791 18.4339 11.027C18.5854 10.9725 18.7168 10.8932 18.828 10.7891C18.9393 10.6849 19.0233 10.5559 19.0802 10.402L20.2805 10.5369C20.2047 10.8542 20.0603 11.1312 19.8472 11.3679C19.6365 11.6023 19.3666 11.7846 19.0376 11.9148C18.7085 12.0426 18.3321 12.1065 17.9083 12.1065ZM23.836 12.1065C23.2892 12.1065 22.8169 11.9929 22.4191 11.7656C22.0238 11.536 21.7195 11.2116 21.5065 10.7926C21.2934 10.3712 21.1869 9.87524 21.1869 9.30469C21.1869 8.74361 21.2934 8.25118 21.5065 7.82741C21.7219 7.40128 22.0226 7.06984 22.4085 6.8331C22.7944 6.59399 23.2477 6.47443 23.7686 6.47443C24.1047 6.47443 24.422 6.52888 24.7203 6.63778C25.0209 6.74432 25.2861 6.91004 25.5157 7.13494C25.7477 7.35985 25.93 7.64631 26.0626 7.99432C26.1952 8.33996 26.2615 8.75189 26.2615 9.23011V9.62429H21.7906V8.75781H25.0292C25.0268 8.5116 24.9736 8.29261 24.8694 8.10085C24.7652 7.90672 24.6196 7.75402 24.4326 7.64276C24.248 7.53149 24.0325 7.47585 23.7863 7.47585C23.5235 7.47585 23.2927 7.53977 23.0938 7.66761C22.895 7.79309 22.7399 7.95881 22.6286 8.16477C22.5197 8.36837 22.4641 8.59209 22.4617 8.83594V9.59233C22.4617 9.90956 22.5197 10.1818 22.6357 10.4091C22.7517 10.634 22.9139 10.8068 23.1222 10.9276C23.3306 11.0459 23.5744 11.1051 23.8538 11.1051C24.0408 11.1051 24.2101 11.0791 24.3616 11.027C24.5131 10.9725 24.6445 10.8932 24.7558 10.7891C24.867 10.6849 24.9511 10.5559 25.0079 10.402L26.2082 10.5369C26.1324 10.8542 25.988 11.1312 25.7749 11.3679C25.5642 11.6023 25.2944 11.7846 24.9653 11.9148C24.6362 12.0426 24.2598 12.1065 23.836 12.1065Z" fill="black" fill-opacity="0.9"/>
</svg>
