<svg width="26" height="12" viewBox="0 0 26 12" fill="none" xmlns="http://www.w3.org/2000/svg">
<rect width="26" height="12" rx="2" fill="#FF972F"/>
<path d="M20.5 2.44531V9.55469H19.1621V2.44531H20.5ZM22.707 2.44531V3.50488H16.9795V2.44531H22.707Z" fill="white"/>
<path d="M16.5938 5.81934V6.18555C16.5938 6.72266 16.5221 7.20605 16.3789 7.63574C16.2357 8.06217 16.0322 8.42513 15.7686 8.72461C15.5049 9.02409 15.1908 9.25358 14.8262 9.41309C14.4616 9.57259 14.0563 9.65234 13.6104 9.65234C13.1709 9.65234 12.7673 9.57259 12.3994 9.41309C12.0348 9.25358 11.7191 9.02409 11.4521 8.72461C11.1852 8.42513 10.9785 8.06217 10.832 7.63574C10.6855 7.20605 10.6123 6.72266 10.6123 6.18555V5.81934C10.6123 5.27897 10.6855 4.79557 10.832 4.36914C10.9785 3.94271 11.1836 3.57975 11.4473 3.28027C11.7109 2.97754 12.0251 2.74642 12.3896 2.58691C12.7575 2.42741 13.1611 2.34766 13.6006 2.34766C14.0465 2.34766 14.4518 2.42741 14.8164 2.58691C15.181 2.74642 15.4951 2.97754 15.7588 3.28027C16.0257 3.57975 16.2308 3.94271 16.374 4.36914C16.5205 4.79557 16.5938 5.27897 16.5938 5.81934ZM15.2363 6.18555V5.80957C15.2363 5.4222 15.2005 5.08203 15.1289 4.78906C15.0573 4.49284 14.9515 4.24382 14.8115 4.04199C14.6715 3.84017 14.499 3.6888 14.2939 3.58789C14.0889 3.48372 13.8577 3.43164 13.6006 3.43164C13.3402 3.43164 13.109 3.48372 12.9072 3.58789C12.7087 3.6888 12.5394 3.84017 12.3994 4.04199C12.2594 4.24382 12.152 4.49284 12.0771 4.78906C12.0055 5.08203 11.9697 5.4222 11.9697 5.80957V6.18555C11.9697 6.56966 12.0055 6.90983 12.0771 7.20605C12.152 7.50228 12.2594 7.75293 12.3994 7.95801C12.5426 8.15983 12.7152 8.31283 12.917 8.41699C13.1188 8.52116 13.3499 8.57324 13.6104 8.57324C13.8708 8.57324 14.1019 8.52116 14.3037 8.41699C14.5055 8.31283 14.6748 8.15983 14.8115 7.95801C14.9515 7.75293 15.0573 7.50228 15.1289 7.20605C15.2005 6.90983 15.2363 6.56966 15.2363 6.18555Z" fill="white"/>
<path d="M8.47363 5.37988V6.43457H4.7334V5.37988H8.47363ZM5.09961 2.44531V9.55469H3.75684V2.44531H5.09961ZM9.46973 2.44531V9.55469H8.12695V2.44531H9.46973Z" fill="white"/>
</svg>
